HIERARCHY
ROOT hip
{
	OFFSET 0.000000 0.000000 0.000000
	CHANNELS 6 Xposition Yposition Zposition Xrotation Zrotation Yrotation 
	JOINT abdomen
	{
		OFFSET 0.000000 3.422050 0.000000
		CHANNELS 3 Xrotation Zrotation Yrotation 
		JOINT chest
		{
			OFFSET 0.000000 8.486693 -0.684411
			CHANNELS 3 Xrotation Zrotation Yrotation 
			JOINT neck
			{
				OFFSET 0.000000 10.266162 -0.273764
				CHANNELS 3 Xrotation Zrotation Yrotation 
				JOINT head
				{
					OFFSET 0.000000 3.148285 0.000000
					CHANNELS 3 Xrotation Zrotation Yrotation 
					End Site
					{
						OFFSET 0.000000 3.148289 0.000000
					}
				}
			}
			JOINT lCollar
			{
				OFFSET 3.422053 6.707223 -0.821293
				CHANNELS 3 Yrotation Zrotation Xrotation 
				JOINT lShldr
				{
					OFFSET 3.285171 0.000000 0.000000
					CHANNELS 3 Zrotation Yrotation Xrotation 
					JOINT lForeArm
					{
						OFFSET 10.129278 0.000000 0.000000
						CHANNELS 3 Yrotation Zrotation Xrotation 
						JOINT lHand
						{
							OFFSET 8.486692 0.000000 0.000000
							CHANNELS 3 Zrotation Yrotation Xrotation 
							End Site
							{
								OFFSET 4.106464 0.000000 0.000000
							}
						}
					}
				}
			}
			JOINT rCollar
			{
				OFFSET -3.558935 6.707223 -0.821293
				CHANNELS 3 Yrotation Zrotation Xrotation 
				JOINT rShldr
				{
					OFFSET -3.148289 0.000000 0.000000
					CHANNELS 3 Zrotation Yrotation Xrotation 
					JOINT rForeArm
					{
						OFFSET -10.266159 0.000000 0.000000
						CHANNELS 3 Yrotation Zrotation Xrotation 
						JOINT rHand
						{
							OFFSET -8.349810 0.000000 0.000000
							CHANNELS 3 Zrotation Yrotation Xrotation 
							End Site
							{
								OFFSET -4.106464 0.000000 0.000000
							}
						}
					}
				}
			}
		}
	}
	JOINT lThigh
	{
		OFFSET 5.338403 -1.642589 1.368821
		CHANNELS 3 Xrotation Zrotation Yrotation 
		JOINT lShin
		{
			OFFSET -2.053232 -20.121670 0.000000
			CHANNELS 3 Xrotation Zrotation Yrotation 
			JOINT lFoot
			{
				OFFSET 0.000000 -19.300380 -1.231939
				CHANNELS 3 Xrotation Yrotation Zrotation 
				End Site
				{
					OFFSET 0.000000 -2.463878 4.653993
				}
			}
		}
	}
	JOINT rThigh
	{
		OFFSET -5.338403 -1.642589 1.368821
		CHANNELS 3 Xrotation Zrotation Yrotation 
		JOINT rShin
		{
			OFFSET 2.053232 -20.121670 0.000000
			CHANNELS 3 Xrotation Zrotation Yrotation 
			JOINT rFoot
			{
				OFFSET 0.000000 -19.300380 -1.231939
				CHANNELS 3 Xrotation Yrotation Zrotation 
				End Site
				{
					OFFSET 0.000000 -2.463878 4.653993
				}
			}
		}
	}
}
MOTION
Frames: 10
Frame Time: 0.049897
0.000000 7.889141 0.000000 0.000000 90.000000 0.000000 -0.344029 -19.016638 0.984869 -0.441132 -26.018034 -0.459802 30.293985 -32.355473 34.610016 0.034231 0.049984 0.048259 0.270925 -7.999192 -0.010855 -2.679864 36.079483 30.198708 -95.001480 0.008429 -80.137489 -25.861647 0.272768 2.430551 -0.002182 7.999157 -0.194408 21.738041 -36.002834 16.550611 126.997711 -13.053161 59.054218 6.963344 -0.000962 10.597602 -40.129082 8.957357 67.036194 48.239948 -1.961482 -0.090798 40.309349 3.775821 8.104119 -28.126995 -5.470768 -0.164252 40.377853 2.328202 0.138804 42.078896 -3.499094 -7.657232 
0.000000 7.889141 0.000000 0.000000 90.000000 0.000000 -0.344029 -19.016638 0.984869 -0.441132 -26.018034 -0.459802 30.318373 -32.453403 34.653473 0.034002 0.049651 0.047938 0.270925 -7.999191 -0.010855 -2.679858 36.079250 30.198708 -95.001526 0.008441 -79.619705 -26.044439 0.268978 2.407335 -0.002182 7.999156 -0.194408 21.738039 -36.002834 16.550611 126.997726 -13.052825 59.053864 6.963580 -0.000961 10.597602 -40.129070 8.957304 67.036179 48.239777 -1.961482 -0.090795 40.309349 3.775821 8.104119 -28.126991 -5.470768 -0.164252 40.377728 2.328202 0.138801 42.078896 -3.499094 -7.657232 
0.000000 7.889141 0.000000 0.000000 90.000000 0.000000 -0.344029 -19.016638 0.984869 -0.441132 -26.018034 -0.459802 30.342709 -32.551353 34.696934 0.033774 0.049318 0.047616 0.270925 -7.999191 -0.010855 -2.679855 36.079021 30.198706 -95.001587 0.008448 -79.100586 -26.227306 0.265113 2.384124 -0.002182 7.999156 -0.194408 21.738039 -36.002834 16.550611 126.997749 -13.052488 59.053509 6.963816 -0.000959 10.597604 -40.129055 8.957252 67.036186 48.239605 -1.961482 -0.090792 40.309349 3.775821 8.104119 -28.126991 -5.470768 -0.164252 40.377598 2.328202 0.138799 42.078896 -3.499094 -7.657232 
0.000000 7.889141 0.000000 0.000000 90.000000 0.000000 -0.344029 -19.016638 0.984869 -0.441132 -26.018034 -0.459802 30.366980 -32.649303 34.740387 0.033546 0.048985 0.047294 0.270925 -7.999191 -0.010855 -2.679853 36.078796 30.198706 -95.001656 0.008458 -78.580170 -26.410229 0.261173 2.360917 -0.002182 7.999156 -0.194408 21.738039 -36.002834 16.550611 126.997765 -13.052154 59.053162 6.964051 -0.000957 10.597606 -40.129044 8.957199 67.036179 48.239441 -1.961482 -0.090790 40.309349 3.775821 8.104119 -28.126991 -5.470768 -0.164252 40.377476 2.328202 0.138796 42.078896 -3.499094 -7.657232 
0.000000 7.889141 0.000000 0.000000 90.000000 0.000000 -0.344029 -19.016638 0.984869 -0.441132 -26.018034 -0.459802 30.391180 -32.747265 34.783836 0.033317 0.048652 0.046972 0.270925 -7.999191 -0.010855 -2.679850 36.078564 30.198706 -95.001717 0.008466 -78.058434 -26.593220 0.257157 2.337715 -0.002182 7.999156 -0.194408 21.738039 -36.002834 16.550611 126.997780 -13.051821 59.052807 6.964286 -0.000956 10.597608 -40.129032 8.957144 67.036179 48.239273 -1.961482 -0.090787 40.309349 3.775821 8.104119 -28.126991 -5.470768 -0.164252 40.377354 2.328202 0.138794 42.078896 -3.499094 -7.657232 
0.000000 7.889141 0.000000 0.000000 90.000000 0.000000 -0.344029 -19.016638 0.984869 -0.441132 -26.018034 -0.459802 30.415327 -32.845245 34.827290 0.033089 0.048319 0.046650 0.270925 -7.999191 -0.010855 -2.679847 36.078331 30.198706 -95.001770 0.008475 -77.535423 -26.776262 0.253066 2.314518 -0.002182 7.999156 -0.194408 21.738039 -36.002834 16.550611 126.997810 -13.051484 59.052452 6.964522 -0.000954 10.597608 -40.129017 8.957091 67.036171 48.239101 -1.961482 -0.090784 40.309349 3.775821 8.104119 -28.126995 -5.470768 -0.164252 40.377232 2.328202 0.138791 42.078896 -3.499094 -7.657232 
0.000000 7.889141 0.000000 0.000000 90.000000 0.000000 -0.344029 -19.016638 0.984869 -0.441132 -26.018034 -0.459802 30.439402 -32.943211 34.870720 0.032860 0.047986 0.046328 0.270925 -7.999191 -0.010855 -2.679843 36.078098 30.198702 -95.001846 0.008482 -77.011162 -26.959372 0.248899 2.291327 -0.002182 7.999156 -0.194408 21.738039 -36.002834 16.550611 126.997818 -13.051148 59.052094 6.964757 -0.000953 10.597609 -40.129009 8.957039 67.036171 48.238937 -1.961483 -0.090781 40.309349 3.775821 8.104119 -28.126995 -5.470768 -0.164252 40.377110 2.328203 0.138788 42.078896 -3.499094 -7.657232 
0.000000 7.889141 0.000000 0.000000 90.000000 0.000000 -0.344029 -19.016638 0.984869 -0.441132 -26.018034 -0.459802 30.463415 -33.041199 34.914154 0.032632 0.047652 0.046007 0.270925 -7.999191 -0.010855 -2.679840 36.077877 30.198702 -95.001907 0.008486 -76.485649 -27.142530 0.244657 2.268140 -0.002182 7.999156 -0.194408 21.738039 -36.002834 16.550611 126.997833 -13.050816 59.051754 6.964993 -0.000951 10.597610 -40.128998 8.956989 67.036179 48.238773 -1.961483 -0.090778 40.309349 3.775821 8.104119 -28.126989 -5.470768 -0.164252 40.376976 2.328203 0.138786 42.078896 -3.499094 -7.657232 
0.000000 7.889141 0.000000 0.000000 90.000000 0.000000 -0.344029 -19.016638 0.984869 -0.441132 -26.018034 -0.459802 30.487373 -33.139191 34.957581 0.032404 0.047319 0.045685 0.270925 -7.999191 -0.010855 -2.679837 36.077648 30.198702 -95.001968 0.008495 -75.958900 -27.325756 0.240339 2.244961 -0.002182 7.999156 -0.194408 21.738039 -36.002834 16.550611 126.997849 -13.050481 59.051399 6.965229 -0.000949 10.597612 -40.128983 8.956936 67.036171 48.238609 -1.961483 -0.090775 40.309349 3.775821 8.104119 -28.126989 -5.470768 -0.164252 40.376850 2.328203 0.138783 42.078896 -3.499094 -7.657232 
0.000000 7.889141 0.000000 0.000000 90.000000 0.000000 -0.344029 -19.016638 0.984869 -0.441132 -26.018034 -0.459802 30.511261 -33.237194 35.001015 0.032176 0.046986 0.045363 0.270925 -7.999191 -0.010855 -2.679835 36.077415 30.198698 -95.002045 0.008498 -75.430954 -27.509031 0.235946 2.221788 -0.002182 7.999156 -0.194408 21.738039 -36.002834 16.550611 126.997871 -13.050144 59.051044 6.965464 -0.000948 10.597613 -40.128971 8.956884 67.036179 48.238438 -1.961483 -0.090772 40.309349 3.775821 8.104119 -28.126989 -5.470768 -0.164252 40.376724 2.328203 0.138781 42.078896 -3.499094 -7.657232 
